<svg viewBox="0 0 180 180" xmlns="http://www.w3.org/2000/svg"><path d="m0 0h180v180h-180z" fill="#fff"/><path d="m90 30.57146a14.90406 14.90406 0 0 0 -7.61432 2.07154l-37.14279 22.09534a14.81223 14.81223 0 0 0 -7.24289 12.70536v45.11264a15.04326 15.04326 0 0 0 7.24289 12.70466l37.14279 22.096a15.02983 15.02983 0 0 0 15.22864 0l37.1428-22.096a14.811 14.811 0 0 0 7.24288-12.70466v-45.29688a14.51112 14.51112 0 0 0 -7.24288-12.52112l-37.1428-22.09534a14.904 14.904 0 0 0 -7.61432-2.07154z" fill="#fff"/><path d="m90 34a8.03341 8.03341 0 0 1 4.11008 1.10632l40.0848 23.84472a7.60968 7.60968 0 0 1 3.80512 6.55914v48.78128a8.03129 8.03129 0 0 1 -3.89008 6.80632l-40 23.79576a8.18772 8.18772 0 0 1 -8.21984 0l-39.87624-23.72054a8.25464 8.25464 0 0 1 -4.01384-6.88154v-48.58287a8.032 8.032 0 0 1 3.88992-6.807l40-23.795a8.033 8.033 0 0 1 4.11008-1.10659m0-8a16.05034 16.05034 0 0 0 -8.2 2.23088l-40 23.795a15.952 15.952 0 0 0 -7.8 13.68271v48.58287a16.20053 16.20053 0 0 0 7.8 13.68192l40 23.79576a16.18576 16.18576 0 0 0 16.4 0l40-23.79576a15.95057 15.95057 0 0 0 7.8-13.68192v-48.78128a15.62761 15.62761 0 0 0 -7.8-13.48432l-40-23.79495a16.05037 16.05037 0 0 0 -8.2-2.23091z" fill="#002a44"/><path d="m90 51.9985a8.50048 8.50048 0 1 1 -8.5 8.501v-.0005a8.50033 8.50033 0 0 1 8.5-8.5005zm24 73.51888a2.00047 2.00047 0 0 1 -.9768 1.71849l-21.8 12.984a1.99737 1.99737 0 0 1 -2.04.00319l-22.2-13.10944a1.99949 1.99949 0 0 1 -.9832-1.72262v-11.527a1.99928 1.99928 0 0 1 3.0224-1.71849l12.9776 7.1893v-27.44392l-7.02239-4.47489a2 2 0 0 1 -.97761-1.719v-11.567a2 2 0 0 1 3.0264-1.71688l20 11.06536a1.99913 1.99913 0 0 1 .9736 1.71609v34.14024l12.9776-7.18928a2 2 0 0 1 3.0224 1.71847z" fill="#53a21a"/><path d="m87.5004 152.00041a7.33759 7.33759 0 0 0 4.99921-7.49871v-51.49128a10.77161 10.77161 0 0 1 5.499-8.9984c5.66424-3.36048 40.99336-23.996 40.99336-23.996a6.634 6.634 0 0 1 2.49952-.49992 3.15744 3.15744 0 0 1 3.01536 3.2934q-.00454.10321-.01584.206v51.86616a12.78848 12.78848 0 0 1 -6.99912 11.9984c-7.91689 4.58715-41.99289 24.62083-41.99289 24.62083a9.876 9.876 0 0 1 -7.9986.49952z" fill-rule="evenodd" opacity=".07"/><g fill="#fff"><path d="m89.55016 92.01746s-1.22616 23.04-.03072 55.9752c0 0 1.08232-21.31791.03072-55.9752zm-48.04192-32.50128a452.10559 452.10559 0 0 0 41.49296 23.99582s-15.2002-10.18182-41.49296-23.99582z" fill-rule="evenodd" opacity=".3"/><path d="m138.192 52.04394-39.99328-23.79144a16.18263 16.18263 0 0 0 -16.39743 0l-39.99329 23.79144a15.596 15.596 0 0 0 -6.51072 7.77688c4.11136-3.6328 6.48288-2.08056 6.48288-2.08056l39.99328 23.791a16.17959 16.17959 0 0 0 16.397 0l39.99321-23.791a4.64248 4.64248 0 0 1 6.82711 2.776l.00048-.1396a15.57342 15.57342 0 0 0 -6.79924-8.33272z" opacity=".15"/><path d="m51.00664 68.01466-16.99712 16.99712v25.496l53.99048-18.99704s.898-2.16672-5.49872-5.99872z" fill-rule="evenodd" opacity=".06"/></g></svg>